<svg width="60" height="61" viewBox="0 0 60 61" fill="none" xmlns="http://www.w3.org/2000/svg">
<rect width="60" height="60" rx="30" fill="url(#paint0_linear_208_681)"/>
<g opacity="0.25" filter="url(#filter0_f_208_681)">
<rect x="9.03931" y="30" width="40.8734" height="25.5459" rx="12.7729" fill="url(#paint1_linear_208_681)"/>
</g>
<rect x="7.80005" y="7.79993" width="44.2795" height="44.2795" rx="22.1397" fill="url(#paint2_linear_208_681)"/>
<g filter="url(#filter1_i_208_681)">
<path d="M19.6364 38.4046H23.4545V29.1318L18 25.0409V36.7682C18 37.6737 18.7336 38.4046 19.6364 38.4046Z" fill="#4285F4"/>
<path d="M36.5454 38.4046H40.3636C41.269 38.4046 42 37.6709 42 36.7682V25.0409L36.5454 29.1318" fill="#34A853"/>
<path d="M36.5454 22.041V29.1319L42 25.041V22.8592C42 20.8356 39.69 19.6819 38.0727 20.8956" fill="#FBBC04"/>
<path d="M23.4546 29.1318V22.0409L30 26.95L36.5455 22.0409V29.1318L30 34.0409" fill="#EA4335"/>
<path d="M18 22.8592V25.041L23.4545 29.1319V22.041L21.9273 20.8956C20.3073 19.6819 18 20.8356 18 22.8592" fill="#C5221F"/>
</g>
<defs>
<filter id="filter0_f_208_681" x="3.57931" y="24.54" width="51.7933" height="36.4658" filterUnits="userSpaceOnUse" color-interpolation-filters="sRGB">
<feFlood flood-opacity="0" result="BackgroundImageFix"/>
<feBlend mode="normal" in="SourceGraphic" in2="BackgroundImageFix" result="shape"/>
<feGaussianBlur stdDeviation="2.73" result="effect1_foregroundBlur_208_681"/>
</filter>
<filter id="filter1_i_208_681" x="16.2" y="16.2" width="27" height="27.5" filterUnits="userSpaceOnUse" color-interpolation-filters="sRGB">
<feFlood flood-opacity="0" result="BackgroundImageFix"/>
<feBlend mode="normal" in="SourceGraphic" in2="BackgroundImageFix" result="shape"/>
<feColorMatrix in="SourceAlpha" type="matrix" values="0 0 0 0 0 0 0 0 0 0 0 0 0 0 0 0 0 0 127 0" result="hardAlpha"/>
<feOffset dy="0.5"/>
<feGaussianBlur stdDeviation="1.25"/>
<feComposite in2="hardAlpha" operator="arithmetic" k2="-1" k3="1"/>
<feColorMatrix type="matrix" values="0 0 0 0 0 0 0 0 0 0 0 0 0 0 0 0 0 0 0.1 0"/>
<feBlend mode="normal" in2="shape" result="effect1_innerShadow_208_681"/>
</filter>
<linearGradient id="paint0_linear_208_681" x1="5.04367" y1="3.93013" x2="49.5852" y2="60" gradientUnits="userSpaceOnUse">
<stop stop-color="#FBFBFC"/>
<stop offset="1" stop-color="#DBDDE8"/>
</linearGradient>
<linearGradient id="paint1_linear_208_681" x1="32.3008" y1="56.3077" x2="23.9695" y2="26.9426" gradientUnits="userSpaceOnUse">
<stop/>
<stop offset="1" stop-color="#323232"/>
</linearGradient>
<linearGradient id="paint2_linear_208_681" x1="33" y1="53.3999" x2="12.3" y2="7.79993" gradientUnits="userSpaceOnUse">
<stop/>
<stop offset="1" stop-color="#323232"/>
</linearGradient>
</defs>
</svg>
